<svg xmlns="http://www.w3.org/2000/svg" viewBox="0 0 851.9 206.1"><defs><style>.a{fill:#514640;}.b{fill:#998882;}.c{fill:#ace944;}.d{fill:#fc6f49;}</style></defs><title>myFirststep</title><path class="a" d="M2166.2,417.8c-1.5-12.1-5.2-20.8-11.5-27.4a35,35,0,0,0-21.2-10.5,58.6,58.6,0,0,0-9.5-.5l-3.2.5a35.6,35.6,0,0,0-18.2,8.5,41.3,41.3,0,0,0-5.2,5.8c-.4.6-.4.5-.4-3.5,0-5.7-.6-7.3-3-8.7s-1.3-.7-5.2-.7-4.1.1-5,.6a4.4,4.4,0,0,0-2.4,2.6c-.4.9-.5,4-.5,65.3-.1,72.6-.3,66.5,1.7,68.4s2.3,1.5,5.7,1.6c5,.2,7.1-.8,8.2-3.9.5-1.5.5-1.9.5-22.9V471.6l.5.2,1.7.7a52.6,52.6,0,0,0,15.1,4.8,54.4,54.4,0,0,0,15.6-.1c14-2.3,24.2-9.4,30.7-21.2a51.7,51.7,0,0,0,5.5-17.9A86.1,86.1,0,0,0,2166.2,417.8Zm-17.1,24.1c-1.6,6.3-4.1,11.1-7.6,14.7a24,24,0,0,1-14,7.2,23.5,23.5,0,0,1-7.1.6,62.8,62.8,0,0,1-16.9-3.1,39.7,39.7,0,0,1-6-2.4l-.5-.3V444.3c0-15.4.1-19.1,1.1-24.5,2.8-16.5,10-25.2,22-26.6a50.2,50.2,0,0,1,8.6.3,32.3,32.3,0,0,1,7,2.4,23.2,23.2,0,0,1,6.3,4.6c3.5,3.7,5.5,7.7,7.1,13.8A64.2,64.2,0,0,1,2149.1,441.9Z" transform="translate(-1314.9 -313.8)"/><path class="a" d="M2066.8,451.6c-1.1,0-1.3.1-1.5.6a15.6,15.6,0,0,1-2.5,4c-2.5,3.1-8.3,6.4-13.2,7.4l-2.8.6a53.5,53.5,0,0,1-11,.4,37,37,0,0,1-17-5.7,37.5,37.5,0,0,1-8.2-8.2A31.3,31.3,0,0,1,2006,438c-.5-3.7-.5-4.3.1-4.1a76.3,76.3,0,0,0,12.1,3.3,74.3,74.3,0,0,0,9.3,1.3c17.1,1.5,30.6-1.9,38.5-9.9a22.5,22.5,0,0,0,6.7-12.8,29.2,29.2,0,0,0-5.1-22.4c-5.5-7.4-14.1-12.1-24.7-13.5a69,69,0,0,0-10.5-.5c-8.3,1.1-12.3,2.1-17.2,4.6-15.3,7.7-24,22.6-24.7,42.3-.6,18.1,4.9,32.2,15.9,41.1a44.1,44.1,0,0,0,17.6,8.7,62.2,62.2,0,0,0,29.4-.1c9.5-2.7,16.3-7.3,19.3-13.1a7,7,0,0,0,.9-3.9,6.1,6.1,0,0,0-.5-3.6A7.3,7.3,0,0,0,2066.8,451.6Zm-59.6-37.9c3.2-9.7,10.8-17.5,20.1-20.3,3.3-1,4.3-1.1,8.7-1a24.1,24.1,0,0,1,6.9.8c6.9,1.9,11.7,5.6,14,10.8a12.9,12.9,0,0,1,1.3,6.4c0,4.3-1.1,7.2-3.8,9.9s-9.2,5.3-16.9,5.7a82.8,82.8,0,0,1-22.8-2.1c-4.2-.9-8.3-2-8.6-2.3S2006.3,416.5,2007.2,413.7Z" transform="translate(-1314.9 -313.8)"/><path class="a" d="M1990.4,464c-1.1-1.8-3.5-3.4-4.3-2.8a20.1,20.1,0,0,1-9.2,3.7,21.9,21.9,0,0,1-7.6.2c-4.8-.7-7-1.6-9.6-4.3s-3.2-4.1-4.2-7.5-1.1-5.8-1.1-32.8V395h29.3l1.2-.5c2.6-1.2,3.5-2.7,3.5-6a6.3,6.3,0,0,0-.6-3.4,5.2,5.2,0,0,0-3.7-2.8c-1.1-.3-3.3-.4-15.5-.4h-14.2V371.6c0-11.9-.1-12.7-1.8-14.4a4.8,4.8,0,0,0-2.1-1.3,26.2,26.2,0,0,0-6.9-.2,5.5,5.5,0,0,0-3.9,1.8c-1.3,1.4-1.3,1.8-1.5,13.4v10.7h-6.4c-5,.1-6.6.2-7.4.6-2.4.9-3.3,2.2-3.6,5s.6,5.7,2.4,6.6,2.3.9,8.6,1l6.4.2v27.4c.2,24.6.2,27.6.6,30a34.5,34.5,0,0,0,4.1,12.1c4,7,9.9,10.9,19.1,12.6a51.6,51.6,0,0,0,15.2.1c5.7-1.1,9.6-2.8,12.1-5.3s2.1-2.8,1.9-5.2A4.2,4.2,0,0,0,1990.4,464Z" transform="translate(-1314.9 -313.8)"/><path class="a" d="M1921.4,428c-2.5-6.8-7.8-12.6-16.1-17.2l-3-1.6-1.6-.7a129.8,129.8,0,0,0-21-7.1l-4.4-1.2a21.9,21.9,0,0,0-2.7-.8c-1.3-.3-8.1-2.6-10.3-3.5-6.4-2.7-10.5-6-12.3-9.8a12.2,12.2,0,0,1-1.3-4.9c-.7-5.3,1.2-10.4,5.4-14.6s10.3-7,17.7-8.1a107.3,107.3,0,0,1,13.9,0c9.5,1.1,17,4.6,21.3,9.8l.7.9,1.7-.5a10.4,10.4,0,0,0,6-4.7c.6-1.1.7-1.5.7-3.6a7,7,0,0,0-.7-3.9,18.1,18.1,0,0,0-4.8-5.3c-6.3-4.4-16.7-7-29.8-7.2-3.1-.1-6.8,0-8.2.1-13.2,1-24.9,5.9-32.3,13.6a31.1,31.1,0,0,0-9.3,22.6c0,15.4,8.8,25.1,29,31.9,2.5.8,5.9,1.7,13,3.6s8.1,2.2,11.6,3.4a55.6,55.6,0,0,1,9.1,3.8c6.5,3.4,10.4,7.7,11.9,13.3a16.4,16.4,0,0,1-.4,10.5c-1.7,5.2-6.2,9.8-12.1,12.5l-2.2,1c-1.9,1-8.6,2.5-13.3,3a65.2,65.2,0,0,1-21.3-2,40.3,40.3,0,0,1-8-3.6,25.3,25.3,0,0,1-7.6-7.8c-.3-.5-.6-.9-.7-.9a25,25,0,0,0-5.3,2.1,10.9,10.9,0,0,0-3.8,3.9c-.3.7-.4,1.4-.4,3.8s0,2.9.7,4.4a12.6,12.6,0,0,0,2.6,3.5c5.1,5.4,14.1,8.9,27.2,10.5a104.1,104.1,0,0,0,21.6.1c13.5-1.9,23.4-6.4,30.7-14a32.8,32.8,0,0,0,9.2-17.4,28.3,28.3,0,0,0,.6-7.2A30.8,30.8,0,0,0,1921.4,428Z" transform="translate(-1314.9 -313.8)"/><path class="a" d="M1821,465.1c-.9-2.7-4.1-4.9-5.2-3.7s-5.7,3-8.9,3.5a37.8,37.8,0,0,1-9.5-.1c-6.2-1.3-10-4.9-11.8-11.5-1.1-3.6-1.1-5.8-1.1-32.8V395h14.3c15.6-.1,15.5-.1,17.5-1.5s2.2-2.7,2.2-5.2-.8-4.6-3-5.7l-1.2-.7h-29.7l-.2-10.6c0-7.8-.2-10.9-.4-11.7a5.9,5.9,0,0,0-3.6-3.5,18.9,18.9,0,0,0-8.2.1,5.3,5.3,0,0,0-3.3,2.9c-.4,1-.5,1.5-.6,11.9v10.9h-6.5c-6.2.1-6.6.1-7.7.7a4.5,4.5,0,0,0-2.6,2.2,12.2,12.2,0,0,0-.5,5.8,5.2,5.2,0,0,0,3,3.7c1.3.6,4.8.8,10,.9h4.4v26.2c0,22.3.1,26.7.4,29.4,1,8.3,3.5,14.4,7.9,18.8s12.8,8.3,23,8.3,19-3.1,21.2-7.8A6.6,6.6,0,0,0,1821,465.1Z" transform="translate(-1314.9 -313.8)"/><path class="a" d="M1745.6,433.1c-5.3-5.4-13.6-9.2-27.1-12.4-9.2-2.2-11.8-3-15.2-4.6-5.6-2.6-7.8-5.7-7.8-10.8,0-7.6,5.7-12,17.2-13.3,7.2-.7,16.9,1.3,21.7,4.7a13.5,13.5,0,0,1,3.2,3.1c.2.7.8.6,2.9-.3a11.8,11.8,0,0,0,3.2-2.1,4.5,4.5,0,0,0,1.7-2.8,7.6,7.6,0,0,0,0-3c-1.2-6.8-10.2-11.5-23.7-12.3a46,46,0,0,0-9.1,0,52.1,52.1,0,0,0-10.3,2,36.5,36.5,0,0,0-14.9,8.7,23.7,23.7,0,0,0-6.9,11.7,19.1,19.1,0,0,0-.6,5.8,18.8,18.8,0,0,0,2.2,9.9,14.4,14.4,0,0,0,3.6,4.7,27.5,27.5,0,0,0,4,3.5c4.8,3.2,11,5.7,18.9,7.6l7.6,1.8a65.1,65.1,0,0,1,13,4.4,14.7,14.7,0,0,1,4.7,3.1,7.9,7.9,0,0,1,2.4,3.5c2.1,5.6,0,11.4-5.3,14.9s-12.1,4.7-21,4.1-15.3-2.7-20.3-6.1a24.3,24.3,0,0,1-5.1-5c-.7-1.3-1.2-1.3-2.7-.3a11.4,11.4,0,0,0-3.6,4.3,10.5,10.5,0,0,0-.5,7.2c1.4,4.4,7,8.3,15.4,10.4a81,81,0,0,0,10.6,1.7,135.2,135.2,0,0,0,15.6,0c11.8-1.2,22.5-6.3,27.7-13.3a20.5,20.5,0,0,0,4.3-9.5,29.1,29.1,0,0,0-1-14.1A22.2,22.2,0,0,0,1745.6,433.1Z" transform="translate(-1314.9 -313.8)"/><path class="a" d="M1668.8,381.7a25,25,0,0,0-12.3-1.9,26.2,26.2,0,0,0-14.1,5.9,36.3,36.3,0,0,0-9.2,10.6l-.9,1.7V385.2l-.7-1.2c-1.3-2.3-3.8-3.2-8.1-2.9s-4.1.5-5.3,1.7-1.7-1.7-1.7,45.8-.1,43.8,1.6,45.7,2.5,1.8,6.7,1.8,3.7,0,4.8-.5a5.7,5.7,0,0,0,2.8-3.3c.2-.8.3-6.7.5-25.8.1-21.1.2-25.2.5-27.1,2.5-14.6,10.1-23.7,21.2-25.5,5.8-1,10.8.1,15.1,3.3,1,.8,1.7,1.1,2,1s2.5-2.4,3.1-3.7C1676.5,389.3,1674.3,384.4,1668.8,381.7Z" transform="translate(-1314.9 -313.8)"/><path class="a" d="M1600,382.9a5.4,5.4,0,0,0-2.1-1.4,21,21,0,0,0-7.5-.2,6.3,6.3,0,0,0-3.8,2.9l-.5,1V472l.5,1a5.8,5.8,0,0,0,1.4,1.7c1.4,1.2,2.2,1.4,5.8,1.4s4.5-.2,6.2-1.7,1.8,1.9,1.9-45.1S1602.1,384.9,1600,382.9Z" transform="translate(-1314.9 -313.8)"/><path class="a" d="M1572,346.1l-1-.7h-72.9a5.9,5.9,0,0,0-3.4,2.6l-.7,1.2V472l.6,1a5.1,5.1,0,0,0,2.8,2.6c1.1.5,1.6.5,5,.5s4.8-.1,6.4-1.7,1.9.2,1.9-31.1V415.5h25.9c20.9-.1,26-.1,26.8-.4a5.6,5.6,0,0,0,3.3-3.6,13,13,0,0,0,.1-6.2,5,5,0,0,0-2.6-3.4l-1-.7h-52.4V359.8h28.9c31.7,0,31.3,0,33.1-1.4s2-2.7,2.1-5.3S1574.2,347.5,1572,346.1Z" transform="translate(-1314.9 -313.8)"/><path class="b" d="M1339.8,403.9c1.1-1.7-1.3-4.6-1.9-7.1-.2-1-.6-1.3-2.9-.9s-2.9,0-4.1-.9c-4-2.7-4.8-7.5-1.9-10.9a7.1,7.1,0,0,1,6-2.7c2.6,0,2.3.5,3.1-4.8,2.5-14.2,12.3-28.1,25.7-35.9,3.9-2.3,12.1-5.3,18.2-6.7a55.8,55.8,0,0,1,5.6-1s.1,1,.2,1.6c.2,3,2.4,8.1,4.9,10.9,4.6,5.2,13.6,6.8,20.3,3.7,3.9-1.8,7-7.1,6.3-10.9-1.3-6.9-9.5-12.5-20-13.5l-2.7-.2a11.7,11.7,0,0,1,2.1-2.9c2.6-2.7,6.5-4.2,11.2-4.1a17.8,17.8,0,0,1,8.1,2.1c3,1.7,3.6,1.4,1.8-.8-3.6-4.2-11.5-6.2-18.2-4.6a20.2,20.2,0,0,0-12,8.6,5.4,5.4,0,0,0-1,2.1h-2.2c-4.8.1-16.4,3.5-22.8,6.9q-24.7,13.2-32,38.4l-1,3.5-2.5,1.3a15.1,15.1,0,0,0-4.6,23.7,13.6,13.6,0,0,0,6.2,4C1330.5,403.2,1338.8,405.5,1339.8,403.9Zm55.6-71.6h1.3a29.1,29.1,0,0,1,4.6.5c5.9.9,9.7,2.9,10.6,5.6s-1.5,5.5-6.1,5.5-9.6-2.8-10.3-8.8A15,15,0,0,1,1395.4,332.3Z" transform="translate(-1314.9 -313.8)"/><path class="b" d="M1461.1,386.1a15.2,15.2,0,0,0-7.5-10.6l-2.1-1.2-1.1-4.1c-2-7.8-6.6-15.7-11.6-20.4-2.9-2.7-4.9-3.6-7.4-3.4s-2.8,2.3,1.2,7.1c1.7,2,3.8,4.9,4.9,6.4,3,4.4,6,13,6.8,19.3l.3,2.1h1.9a7,7,0,0,1,5.4,2.7,7.2,7.2,0,0,1-5.4,11.8,5.2,5.2,0,0,0-2.2,0c-.7.3-.8,2.5-1.2,3.3s-2.1,3.6-.9,4.7,9-.9,10.3-1.4C1458.4,400.3,1462.4,392.5,1461.1,386.1Z" transform="translate(-1314.9 -313.8)"/><path class="b" d="M1364.1,381.9c-4.3,2.7-4.2,9.2.3,11.5a6.9,6.9,0,0,0,8.6-1.8,8.1,8.1,0,0,0,.4-7.1A6.8,6.8,0,0,0,1364.1,381.9Z" transform="translate(-1314.9 -313.8)"/><path class="b" d="M1409.7,382.1a6.7,6.7,0,0,0,4.3,12.1c8.4-.8,7.8-13.1-.6-13.1A6,6,0,0,0,1409.7,382.1Z" transform="translate(-1314.9 -313.8)"/><path class="c" d="M1585.8,366.5c-2.4-2.3-5.2-24,12.3-38.4,17-12.3,34.8-9.7,37.5-7.1s6.2,22.2-10.9,38.1S1588.1,368.5,1585.8,366.5Z" transform="translate(-1314.9 -313.8)"/><path class="d" d="M1376,417.1a18.6,18.6,0,0,0-13.7,11.7,3.5,3.5,0,0,1-.7,1.4,7.2,7.2,0,0,1-.6-1.7,17.9,17.9,0,0,0-7.9-9.4,19.4,19.4,0,0,0-12-1.7c-5.6.9-9.4,3.5-12.6,8.3l-1,1.5v-2.7c-.2-3.2-.6-4.7-1.6-5.6s-2.2-1.3-4.9-1.3-4.7.7-5.6,3.1c-.3.6-.3,5-.4,26.1-.1,17.3,0,25.7.2,26.3s2,2.9,5.2,3,4.1-.2,5.3-1.6,2.1-4.2,1.9-15.2c-.1-9.2.2-17.1.8-20.1,1.4-6.4,4.2-9.9,8.9-11s11.2,1.7,13.2,8.5c.5,1.6.5,1.9.6,18.6l.2,17,.6,1.3c.6,1.2.9,1.5,1.8,1.9s1.4.6,3.9.6,5-.6,5.9-3c.3-.6.4-4.1.5-15.9.1-16.1.2-17,1.3-20.7,1.7-5.4,5.1-8.2,10.3-8.6s9,2.6,10.9,8.4c.5,1.3.5,2,.6,18.5l.2,17.2.5,1.4c.9,2.2,2.8,3,6.6,2.8s3.9-.8,4.8-2.6l.6-1.3v-17c.1-18.1,0-20.5-1-24.2-1.7-7-5.9-11.6-12.3-13.5a19.2,19.2,0,0,0-5.8-.7A27.1,27.1,0,0,0,1376,417.1Z" transform="translate(-1314.9 -313.8)"/><path class="d" d="M1411.4,418a5,5,0,0,0-1.4.8c-1.2,1-1.2,2.1.2,6.9a271.4,271.4,0,0,0,13.2,37.1c4.3,9.7,5.9,12.1,8.3,12.7l1.2.4c.1.1-2.3,5.1-6.6,13.6s-4.3,8.6-3.4,10.4a3,3,0,0,0,1.5,1.4c1.1.5,1.4.5,3.9.5s2.8,0,3.8-.5,3.8-3.3,5.8-7.6a535,535,0,0,0,21.9-57.2l3.4-10.4a31.8,31.8,0,0,0,1.4-5,3.2,3.2,0,0,0-1.8-2.7c-.9-.5-1.3-.6-4.5-.6s-3.5.1-4.4.6-2,1.4-4.1,9.1c-2.8,10.1-9,28.8-12.1,36.9l-.3.6-.6-.5c-1.6-1.5-5.7-13.2-11.5-32.8-3.4-11.6-3.4-11.5-4.4-12.5a4.3,4.3,0,0,0-1.8-1.2A33,33,0,0,0,1411.4,418Z" transform="translate(-1314.9 -313.8)"/></svg>